<svg width="188" height="60" viewBox="0 0 188 60" fill="none" xmlns="http://www.w3.org/2000/svg">
<g filter="url(#filter0_d_1392_2)">
<path d="M28.94 50.66C28.5733 50.8433 28.2433 50.935 27.95 50.935C27.51 50.935 26.96 50.7883 26.3 50.495C25.6767 50.2017 25.035 49.8533 24.375 49.45C23.715 49.01 23.0917 48.57 22.505 48.13C21.955 47.69 21.515 47.3233 21.185 47.03C20.085 46.0033 19.0583 44.9033 18.105 43.73C17.1517 42.52 16.2533 41.2917 15.41 40.045C15.41 40.375 15.3917 40.9983 15.355 41.915C15.3183 42.795 15.2817 43.7483 15.245 44.775C15.245 45.765 15.2083 46.7183 15.135 47.635C15.0983 48.515 15.0617 49.12 15.025 49.45C14.9517 49.7433 14.7683 50 14.475 50.22C14.1817 50.44 13.87 50.5683 13.54 50.605C12.1833 50.825 10.8083 50.9167 9.415 50.88C8.02167 50.88 6.62833 50.8433 5.235 50.77C4.72167 50.7333 4.17167 50.6783 3.585 50.605C2.99833 50.5317 2.50333 50.3117 2.1 49.945C1.66 49.5783 1.34833 49.0283 1.165 48.295C1.01833 47.525 0.926667 46.7 0.89 45.82C0.853333 44.94 0.871667 44.06 0.945 43.18C1.01833 42.3 1.07333 41.585 1.11 41.035C1.36667 37.6983 1.62333 34.38 1.88 31.08C2.13667 27.78 2.57667 24.48 3.2 21.18C3.31 20.74 3.40167 20.135 3.475 19.365C3.585 18.595 3.71333 17.7517 3.86 16.835C4.00667 15.9183 4.15333 14.9833 4.3 14.03C4.48333 13.04 4.685 12.105 4.905 11.225C5.125 10.345 5.36333 9.575 5.62 8.915C5.87667 8.21833 6.17 7.705 6.5 7.375C6.79333 7.08166 7.17833 6.88 7.655 6.77C8.13167 6.66 8.59 6.58667 9.03 6.55C10.6067 6.47666 12.1833 6.45833 13.76 6.495C15.3733 6.495 16.9317 6.75167 18.435 7.265C18.8383 7.375 19.2233 7.54 19.59 7.76C19.9567 7.94333 20.195 8.23667 20.305 8.64C20.3783 8.89666 20.36 9.28166 20.25 9.795C20.1767 10.3083 20.0483 10.84 19.865 11.39C19.7183 11.94 19.5533 12.4717 19.37 12.985C19.1867 13.4617 19.0583 13.8283 18.985 14.085C18.9117 14.2683 18.8017 14.5983 18.655 15.075C18.545 15.5517 18.4167 16.0833 18.27 16.67C18.16 17.22 18.0317 17.7517 17.885 18.265C17.775 18.7417 17.7017 19.0533 17.665 19.2C19.535 17.22 21.4783 15.3317 23.495 13.535C24.3383 12.8017 25.1817 12.0867 26.025 11.39C26.8683 10.6933 27.7667 10.07 28.72 9.52C29.0133 9.33666 29.325 9.17166 29.655 9.025C29.985 8.84166 30.315 8.71333 30.645 8.64C31.525 8.45666 32.3317 8.64 33.065 9.19C33.3583 9.37333 33.615 9.59333 33.835 9.85C34.0917 10.07 34.33 10.3083 34.55 10.565C35.2833 11.2983 35.98 12.0867 36.64 12.93C37.3 13.7733 37.8317 14.69 38.235 15.68C38.3817 16.01 38.4917 16.3767 38.565 16.78C38.6383 17.1833 38.5833 17.55 38.4 17.88C38.29 18.0633 38.0517 18.3017 37.685 18.595C37.355 18.8517 36.9883 19.1267 36.585 19.42C36.1817 19.7133 35.7783 19.9883 35.375 20.245C35.0083 20.5017 34.7517 20.685 34.605 20.795C33.615 21.6017 32.6067 22.39 31.58 23.16C30.5533 23.8933 29.5267 24.645 28.5 25.415C27.4733 26.1483 26.465 26.9183 25.475 27.725C24.485 28.5317 23.5683 29.4117 22.725 30.365C24.0083 32.2717 25.5117 34.05 27.235 35.7C28.9583 37.3133 30.81 38.7067 32.79 39.88C33.2667 40.1733 33.725 40.485 34.165 40.815C34.605 41.145 34.99 41.53 35.32 41.97C35.7233 42.52 35.815 43.1067 35.595 43.73C35.485 44.06 35.3017 44.3717 35.045 44.665C34.825 44.9217 34.5867 45.1967 34.33 45.49C34.11 45.71 33.7617 46.095 33.285 46.645C32.8083 47.1583 32.295 47.69 31.745 48.24C31.195 48.79 30.645 49.3033 30.095 49.78C29.5817 50.22 29.1967 50.5133 28.94 50.66ZM49.6582 50.495C49.3282 50.6783 48.7782 50.8067 48.0082 50.88C47.2749 50.9533 46.4866 50.99 45.6432 50.99C44.7999 51.0267 43.9932 51.0267 43.2232 50.99C42.4532 50.9533 41.8849 50.935 41.5182 50.935C41.2249 50.935 40.8216 50.935 40.3082 50.935C39.7949 50.935 39.2632 50.8983 38.7132 50.825C38.1632 50.7883 37.6499 50.6967 37.1732 50.55C36.7332 50.44 36.4032 50.275 36.1832 50.055C35.9632 49.835 35.8166 49.4867 35.7432 49.01C35.6332 48.5333 35.5782 48.0383 35.5782 47.525C35.5782 46.975 35.5966 46.4433 35.6332 45.93C35.6699 45.4167 35.6882 45.0133 35.6882 44.72C35.7982 42.4467 36.0366 40.1917 36.4032 37.955C36.7699 35.7183 37.2099 33.5 37.7232 31.3C38.2366 29.0633 38.8416 26.8633 39.5382 24.7C40.2349 22.5 41.0416 20.355 41.9582 18.265C42.4349 17.165 42.9299 16.0833 43.4432 15.02C43.9932 13.92 44.6166 12.8933 45.3132 11.94C45.7166 11.4267 46.1382 10.9133 46.5782 10.4C47.0182 9.88667 47.5316 9.465 48.1182 9.135C48.6682 8.84166 49.2549 8.62166 49.8782 8.475C50.5382 8.29166 51.1982 8.16333 51.8582 8.09C53.6182 7.90667 55.3599 7.77833 57.0832 7.705C58.8432 7.595 60.6032 7.68667 62.3632 7.98C62.7299 8.05333 63.0966 8.12666 63.4632 8.2C63.8299 8.27333 64.1599 8.43833 64.4532 8.695C64.6732 8.87833 64.9482 9.22666 65.2782 9.74C65.6082 10.2167 65.9382 10.7483 66.2682 11.335C66.5982 11.885 66.8916 12.435 67.1482 12.985C67.4416 13.4983 67.6432 13.8833 67.7532 14.14C68.7066 16.23 69.5316 18.3567 70.2282 20.52C70.9249 22.6833 71.5849 24.865 72.2082 27.065C72.9782 29.9617 73.6566 32.8767 74.2432 35.81C74.8299 38.7433 75.2149 41.695 75.3982 44.665C75.3982 44.8483 75.4166 45.1417 75.4532 45.545C75.4899 45.9483 75.5082 46.37 75.5082 46.81C75.5082 47.25 75.4899 47.6717 75.4532 48.075C75.4532 48.4417 75.4349 48.7167 75.3982 48.9C75.2882 49.1933 74.9949 49.4317 74.5182 49.615C74.0416 49.7983 73.6566 49.9267 73.3632 50C71.6399 50.4767 69.8799 50.7333 68.0832 50.77C66.2866 50.8433 64.5082 50.7517 62.7482 50.495C62.4916 50.4583 62.2349 50.4217 61.9782 50.385C61.7216 50.385 61.5016 50.2933 61.3182 50.11C61.0616 49.8533 60.8966 49.56 60.8232 49.23C60.7866 48.8633 60.7499 48.515 60.7132 48.185C60.6399 46.425 60.5116 44.7017 60.3282 43.015C60.1449 41.3283 59.8882 39.6233 59.5582 37.9C58.2016 37.6067 56.8266 37.4967 55.4332 37.57C54.0766 37.6433 52.7382 37.8267 51.4182 38.12C51.1249 39.6233 50.8866 41.1083 50.7032 42.575C50.5199 44.0417 50.4099 45.545 50.3732 47.085C50.3732 47.305 50.3732 47.5983 50.3732 47.965C50.3732 48.295 50.3549 48.6433 50.3182 49.01C50.2816 49.34 50.2082 49.6517 50.0982 49.945C50.0249 50.2017 49.8782 50.385 49.6582 50.495ZM55.1582 24.205C54.6816 25.415 54.2416 26.6433 53.8382 27.89C53.4349 29.1367 53.0866 30.4017 52.7932 31.685C53.6366 31.5017 54.4799 31.3733 55.3232 31.3C56.1666 31.2267 57.0099 31.1717 57.8532 31.135C57.4866 29.9617 57.1016 28.7883 56.6982 27.615C56.2949 26.405 55.7816 25.2683 55.1582 24.205ZM88.3787 51.485C87.9753 51.595 87.297 51.65 86.3437 51.65C85.3903 51.6867 84.382 51.6867 83.3187 51.65C82.292 51.6133 81.302 51.5583 80.3487 51.485C79.3953 51.4117 78.717 51.3567 78.3137 51.32C78.0937 51.32 77.837 51.3017 77.5437 51.265C77.2503 51.2283 76.957 51.1733 76.6637 51.1C76.3703 51.0267 76.0953 50.9167 75.8387 50.77C75.6187 50.66 75.472 50.5133 75.3987 50.33C75.252 49.89 75.142 49.1933 75.0687 48.24C75.032 47.25 75.0137 46.205 75.0137 45.105C75.0137 44.005 75.032 42.96 75.0687 41.97C75.1053 40.9433 75.142 40.21 75.1787 39.77C75.1787 39.4767 75.197 38.8533 75.2337 37.9C75.307 36.91 75.362 35.865 75.3987 34.765C75.472 33.665 75.527 32.6383 75.5637 31.685C75.637 30.695 75.692 30.035 75.7287 29.705C75.7653 29.4483 75.802 29.0083 75.8387 28.385C75.912 27.7617 75.9853 27.0467 76.0587 26.24C76.132 25.4333 76.2053 24.59 76.2787 23.71C76.352 22.7933 76.4253 21.9317 76.4987 21.125C76.6087 20.3183 76.682 19.6033 76.7187 18.98C76.792 18.3567 76.847 17.9167 76.8837 17.66C76.9937 16.7067 77.1037 15.7533 77.2137 14.8C77.3237 13.81 77.4703 12.8383 77.6537 11.885C77.727 11.4083 77.8187 10.9317 77.9287 10.455C78.0387 9.94166 78.2037 9.465 78.4237 9.025C78.607 8.65833 78.9003 8.365 79.3037 8.145C79.597 7.99833 79.9087 7.90666 80.2387 7.87C80.5687 7.79667 80.8987 7.74167 81.2287 7.705C84.7853 7.375 88.3603 7.24666 91.9537 7.32C95.5837 7.39333 99.122 7.85166 102.569 8.695C103.999 9.06166 105.337 9.70333 106.584 10.62C107.867 11.5367 108.93 12.6 109.774 13.81C110.507 14.8733 111.075 16.065 111.479 17.385C111.919 18.6683 112.194 19.9517 112.304 21.235C112.414 22.995 112.285 24.7917 111.919 26.625C111.552 28.4217 110.947 30.09 110.104 31.63C109.81 32.1433 109.499 32.675 109.169 33.225C108.875 33.7383 108.527 34.2333 108.124 34.71C107.83 35.0767 107.482 35.4067 107.079 35.7C106.712 35.9567 106.327 36.2133 105.924 36.47C106.767 37.2767 107.445 38.2117 107.959 39.275C108.509 40.3383 108.949 41.4383 109.279 42.575C109.535 43.4183 109.755 44.28 109.939 45.16C110.159 46.04 110.305 46.9383 110.379 47.855C110.415 48.185 110.397 48.5333 110.324 48.9C110.287 49.2667 110.159 49.5783 109.939 49.835C109.499 50.275 108.82 50.605 107.904 50.825C107.024 51.0817 106.07 51.265 105.044 51.375C104.017 51.485 102.99 51.54 101.964 51.54C100.974 51.5767 100.185 51.5767 99.5987 51.54C99.1587 51.5033 98.682 51.4483 98.1687 51.375C97.692 51.3017 97.307 51.0817 97.0137 50.715C96.9037 50.5683 96.7937 50.2567 96.6837 49.78C96.5737 49.2667 96.482 48.9183 96.4087 48.735C96.2987 48.2217 96.1887 47.7083 96.0787 47.195C95.9687 46.645 95.877 46.095 95.8037 45.545C95.657 44.775 95.492 44.005 95.3087 43.235C95.1253 42.465 94.832 41.7317 94.4287 41.035C94.1353 40.595 93.787 40.1917 93.3837 39.825C93.017 39.4583 92.577 39.1833 92.0637 39C91.697 38.89 91.3303 38.8167 90.9637 38.78C90.6337 38.7433 90.267 38.7067 89.8637 38.67C89.8637 39 89.8637 39.6417 89.8637 40.595C89.9003 41.5117 89.9187 42.52 89.9187 43.62C89.9553 44.6833 89.9737 45.6917 89.9737 46.645C90.0103 47.5617 90.0287 48.1667 90.0287 48.46C89.992 48.8633 89.9553 49.2667 89.9187 49.67C89.882 50.0733 89.7537 50.4217 89.5337 50.715C89.387 50.8983 89.2037 51.045 88.9837 51.155C88.8003 51.3017 88.5987 51.4117 88.3787 51.485ZM92.5037 26.57C93.017 26.6067 93.5487 26.5883 94.0987 26.515C94.6853 26.405 95.217 26.2583 95.6937 26.075C96.207 25.855 96.647 25.58 97.0137 25.25C97.3803 24.8833 97.6187 24.4617 97.7287 23.985C97.802 23.4717 97.8203 22.9583 97.7837 22.445C97.747 21.9317 97.6003 21.455 97.3437 21.015C97.1603 20.7217 96.922 20.4833 96.6287 20.3C96.372 20.1167 96.097 19.97 95.8037 19.86C95.327 19.6767 94.832 19.5667 94.3187 19.53C93.842 19.4567 93.3653 19.365 92.8887 19.255C92.5587 19.1817 92.1553 19.1083 91.6787 19.035C91.2387 18.9617 90.927 19.0717 90.7437 19.365C90.5603 19.6583 90.4137 20.1167 90.3037 20.74C90.1937 21.3633 90.102 22.0233 90.0287 22.72C89.992 23.4167 89.9553 24.095 89.9187 24.755C89.882 25.415 89.8637 25.91 89.8637 26.24C90.3037 26.3133 90.7437 26.3867 91.1837 26.46C91.6237 26.4967 92.0637 26.5333 92.5037 26.57ZM131.932 50.165C131.565 50.165 130.85 50.165 129.787 50.165C128.723 50.2017 127.587 50.22 126.377 50.22C125.203 50.22 124.085 50.22 123.022 50.22C121.958 50.22 121.243 50.2017 120.877 50.165C120.473 50.165 120.07 50.11 119.667 50C119.3 49.8533 118.97 49.6333 118.677 49.34C118.383 49.0467 118.182 48.68 118.072 48.24C117.962 47.8 117.907 47.36 117.907 46.92C117.907 41.97 118.053 37.0383 118.347 32.125C118.64 27.2117 118.915 22.28 119.172 17.33C119.062 17.3667 118.842 17.4033 118.512 17.44C118.182 17.4767 117.815 17.5317 117.412 17.605C117.045 17.6417 116.697 17.6967 116.367 17.77C116.037 17.8067 115.817 17.825 115.707 17.825C115.523 17.8617 115.285 17.9167 114.992 17.99C114.698 18.0633 114.387 18.1367 114.057 18.21C113.727 18.2467 113.415 18.2833 113.122 18.32C112.865 18.3567 112.663 18.3383 112.517 18.265C112.297 18.1917 112.113 17.9717 111.967 17.605C111.893 17.4583 111.82 17.1833 111.747 16.78C111.673 16.3767 111.6 15.955 111.527 15.515C111.453 15.0383 111.398 14.5983 111.362 14.195C111.288 13.7917 111.252 13.5167 111.252 13.37C111.215 13.1867 111.178 12.9483 111.142 12.655C111.105 12.325 111.087 11.995 111.087 11.665C111.087 11.335 111.105 11.0417 111.142 10.785C111.178 10.4917 111.252 10.2717 111.362 10.125C111.472 9.94167 111.673 9.795 111.967 9.685C112.297 9.53833 112.645 9.42833 113.012 9.355C113.378 9.245 113.727 9.17166 114.057 9.135C114.423 9.06166 114.717 9.00666 114.937 8.97C118.31 8.56666 121.683 8.365 125.057 8.365C128.43 8.32833 131.822 8.27333 135.232 8.2C135.965 8.16333 136.68 8.12666 137.377 8.09C138.073 8.05333 138.788 8.12667 139.522 8.31C139.705 8.38333 139.87 8.45666 140.017 8.53C140.2 8.56667 140.347 8.65833 140.457 8.805C140.567 8.915 140.64 9.11666 140.677 9.41C140.713 9.70333 140.732 10.015 140.732 10.345C140.732 10.675 140.713 11.005 140.677 11.335C140.677 11.6283 140.677 11.8483 140.677 11.995C140.677 12.1783 140.658 12.435 140.622 12.765C140.622 13.0583 140.603 13.3883 140.567 13.755C140.567 14.085 140.53 14.415 140.457 14.745C140.42 15.0383 140.347 15.2583 140.237 15.405C140.053 15.5883 139.705 15.7533 139.192 15.9C138.678 16.01 138.275 16.1017 137.982 16.175C137.248 16.285 136.515 16.3767 135.782 16.45C135.048 16.4867 134.315 16.56 133.582 16.67C133.545 16.8533 133.545 17.0183 133.582 17.165C133.618 17.3117 133.637 17.4583 133.637 17.605C133.857 22.4817 134.077 27.3217 134.297 32.125C134.553 36.8917 134.81 41.695 135.067 46.535C135.103 47.0117 135.103 47.5067 135.067 48.02C135.067 48.4967 134.92 48.9367 134.627 49.34C134.333 49.7067 133.93 49.9267 133.417 50C132.903 50.11 132.408 50.165 131.932 50.165ZM158.501 50.77C156.521 51.21 154.504 51.3567 152.451 51.21C150.398 51.0633 148.436 50.6233 146.566 49.89C145.356 49.4133 144.201 48.8083 143.101 48.075C142.001 47.3417 141.029 46.4617 140.186 45.435C139.269 44.2983 138.554 43.0333 138.041 41.64C137.528 40.2467 137.179 38.835 136.996 37.405C136.593 34.875 136.556 32.3083 136.886 29.705C137.216 27.1017 137.858 24.59 138.811 22.17C139.434 20.52 140.186 18.925 141.066 17.385C141.983 15.845 143.064 14.4333 144.311 13.15C146.144 11.28 148.271 9.88667 150.691 8.97C152.121 8.42 153.624 8.07166 155.201 7.925C156.778 7.77833 158.336 7.79666 159.876 7.98C160.719 8.09 161.544 8.23666 162.351 8.42C163.158 8.56666 163.928 8.805 164.661 9.135C165.394 9.50166 166.128 9.88666 166.861 10.29C167.631 10.6567 168.346 11.0967 169.006 11.61C169.886 12.27 170.711 13.0217 171.481 13.865C172.251 14.7083 172.893 15.6067 173.406 16.56C174.249 18.1 174.763 19.7867 174.946 21.62C175.166 23.4533 175.203 25.2683 175.056 27.065C174.836 30.0717 174.194 33.0783 173.131 36.085C172.104 39.055 170.601 41.7133 168.621 44.06C168.108 44.6833 167.558 45.3067 166.971 45.93C166.384 46.5533 165.761 47.1217 165.101 47.635C164.148 48.3683 163.103 49.01 161.966 49.56C160.829 50.11 159.674 50.5133 158.501 50.77ZM152.506 37.57C152.873 37.8267 153.239 37.955 153.606 37.955C154.009 37.955 154.394 37.8817 154.761 37.735C155.128 37.5517 155.458 37.3133 155.751 37.02C156.301 36.5067 156.759 35.9383 157.126 35.315C157.529 34.655 157.896 33.9767 158.226 33.28C158.739 32.3267 159.179 31.355 159.546 30.365C159.913 29.375 160.206 28.3483 160.426 27.285C160.573 26.735 160.664 26.185 160.701 25.635C160.774 25.0483 160.738 24.4983 160.591 23.985C160.518 23.6917 160.389 23.4167 160.206 23.16C160.059 22.9033 159.858 22.6833 159.601 22.5C159.124 22.17 158.464 21.9867 157.621 21.95C156.778 21.9133 156.118 22.06 155.641 22.39C155.238 22.6833 154.834 23.1967 154.431 23.93C154.028 24.6267 153.661 25.3967 153.331 26.24C153.001 27.0833 152.708 27.9267 152.451 28.77C152.231 29.5767 152.066 30.2183 151.956 30.695C151.846 31.1717 151.736 31.7583 151.626 32.455C151.553 33.115 151.498 33.775 151.461 34.435C151.461 35.095 151.534 35.7183 151.681 36.305C151.828 36.855 152.103 37.2767 152.506 37.57Z" fill="#1662F8"/>
</g>
<g filter="url(#filter1_d_1392_2)">
<path d="M33.4 48.6C33.0667 48.7667 32.7667 48.85 32.5 48.85C32.1 48.85 31.6 48.7167 31 48.45C30.4333 48.1833 29.85 47.8667 29.25 47.5C28.65 47.1 28.0833 46.7 27.55 46.3C27.05 45.9 26.65 45.5667 26.35 45.3C25.35 44.3667 24.4167 43.3667 23.55 42.3C22.6833 41.2 21.8667 40.0833 21.1 38.95C21.1 39.25 21.0833 39.8167 21.05 40.65C21.0167 41.45 20.9833 42.3167 20.95 43.25C20.95 44.15 20.9167 45.0167 20.85 45.85C20.8167 46.65 20.7833 47.2 20.75 47.5C20.6833 47.7667 20.5167 48 20.25 48.2C19.9833 48.4 19.7 48.5167 19.4 48.55C18.1667 48.75 16.9167 48.8333 15.65 48.8C14.3833 48.8 13.1167 48.7667 11.85 48.7C11.3833 48.6667 10.8833 48.6167 10.35 48.55C9.81667 48.4833 9.36667 48.2833 9 47.95C8.6 47.6167 8.31667 47.1167 8.15 46.45C8.01667 45.75 7.93333 45 7.9 44.2C7.86667 43.4 7.88333 42.6 7.95 41.8C8.01667 41 8.06667 40.35 8.1 39.85C8.33333 36.8167 8.56667 33.8 8.8 30.8C9.03333 27.8 9.43333 24.8 10 21.8C10.1 21.4 10.1833 20.85 10.25 20.15C10.35 19.45 10.4667 18.6833 10.6 17.85C10.7333 17.0167 10.8667 16.1667 11 15.3C11.1667 14.4 11.35 13.55 11.55 12.75C11.75 11.95 11.9667 11.25 12.2 10.65C12.4333 10.0167 12.7 9.55 13 9.25C13.2667 8.98333 13.6167 8.8 14.05 8.7C14.4833 8.6 14.9 8.53333 15.3 8.5C16.7333 8.43333 18.1667 8.41666 19.6 8.45C21.0667 8.45 22.4833 8.68333 23.85 9.15C24.2167 9.25 24.5667 9.4 24.9 9.6C25.2333 9.76667 25.45 10.0333 25.55 10.4C25.6167 10.6333 25.6 10.9833 25.5 11.45C25.4333 11.9167 25.3167 12.4 25.15 12.9C25.0167 13.4 24.8667 13.8833 24.7 14.35C24.5333 14.7833 24.4167 15.1167 24.35 15.35C24.2833 15.5167 24.1833 15.8167 24.05 16.25C23.95 16.6833 23.8333 17.1667 23.7 17.7C23.6 18.2 23.4833 18.6833 23.35 19.15C23.25 19.5833 23.1833 19.8667 23.15 20C24.85 18.2 26.6167 16.4833 28.45 14.85C29.2167 14.1833 29.9833 13.5333 30.75 12.9C31.5167 12.2667 32.3333 11.7 33.2 11.2C33.4667 11.0333 33.75 10.8833 34.05 10.75C34.35 10.5833 34.65 10.4667 34.95 10.4C35.75 10.2333 36.4833 10.4 37.15 10.9C37.4167 11.0667 37.65 11.2667 37.85 11.5C38.0833 11.7 38.3 11.9167 38.5 12.15C39.1667 12.8167 39.8 13.5333 40.4 14.3C41 15.0667 41.4833 15.9 41.85 16.8C41.9833 17.1 42.0833 17.4333 42.15 17.8C42.2167 18.1667 42.1667 18.5 42 18.8C41.9 18.9667 41.6833 19.1833 41.35 19.45C41.05 19.6833 40.7167 19.9333 40.35 20.2C39.9833 20.4667 39.6167 20.7167 39.25 20.95C38.9167 21.1833 38.6833 21.35 38.55 21.45C37.65 22.1833 36.7333 22.9 35.8 23.6C34.8667 24.2667 33.9333 24.95 33 25.65C32.0667 26.3167 31.15 27.0167 30.25 27.75C29.35 28.4833 28.5167 29.2833 27.75 30.15C28.9167 31.8833 30.2833 33.5 31.85 35C33.4167 36.4667 35.1 37.7333 36.9 38.8C37.3333 39.0667 37.75 39.35 38.15 39.65C38.55 39.95 38.9 40.3 39.2 40.7C39.5667 41.2 39.65 41.7333 39.45 42.3C39.35 42.6 39.1833 42.8833 38.95 43.15C38.75 43.3833 38.5333 43.6333 38.3 43.9C38.1 44.1 37.7833 44.45 37.35 44.95C36.9167 45.4167 36.45 45.9 35.95 46.4C35.45 46.9 34.95 47.3667 34.45 47.8C33.9833 48.2 33.6333 48.4667 33.4 48.6ZM52.2348 48.45C51.9348 48.6167 51.4348 48.7333 50.7348 48.8C50.0681 48.8667 49.3514 48.9 48.5848 48.9C47.8181 48.9333 47.0848 48.9333 46.3848 48.9C45.6848 48.8667 45.1681 48.85 44.8348 48.85C44.5681 48.85 44.2014 48.85 43.7348 48.85C43.2681 48.85 42.7848 48.8167 42.2848 48.75C41.7848 48.7167 41.3181 48.6333 40.8848 48.5C40.4848 48.4 40.1848 48.25 39.9848 48.05C39.7848 47.85 39.6514 47.5333 39.5848 47.1C39.4848 46.6667 39.4348 46.2167 39.4348 45.75C39.4348 45.25 39.4514 44.7667 39.4848 44.3C39.5181 43.8333 39.5348 43.4667 39.5348 43.2C39.6348 41.1333 39.8514 39.0833 40.1848 37.05C40.5181 35.0167 40.9181 33 41.3848 31C41.8514 28.9667 42.4014 26.9667 43.0348 25C43.6681 23 44.4014 21.05 45.2348 19.15C45.6681 18.15 46.1181 17.1667 46.5848 16.2C47.0848 15.2 47.6514 14.2667 48.2848 13.4C48.6514 12.9333 49.0348 12.4667 49.4348 12C49.8348 11.5333 50.3014 11.15 50.8348 10.85C51.3348 10.5833 51.8681 10.3833 52.4348 10.25C53.0348 10.0833 53.6348 9.96666 54.2348 9.9C55.8348 9.73333 57.4181 9.61667 58.9848 9.55C60.5848 9.45 62.1848 9.53333 63.7848 9.8C64.1181 9.86666 64.4514 9.93333 64.7848 10C65.1181 10.0667 65.4181 10.2167 65.6848 10.45C65.8848 10.6167 66.1348 10.9333 66.4348 11.4C66.7348 11.8333 67.0348 12.3167 67.3348 12.85C67.6348 13.35 67.9014 13.85 68.1348 14.35C68.4014 14.8167 68.5848 15.1667 68.6848 15.4C69.5514 17.3 70.3014 19.2333 70.9348 21.2C71.5681 23.1667 72.1681 25.15 72.7348 27.15C73.4348 29.7833 74.0514 32.4333 74.5848 35.1C75.1181 37.7667 75.4681 40.45 75.6348 43.15C75.6348 43.3167 75.6514 43.5833 75.6848 43.95C75.7181 44.3167 75.7348 44.7 75.7348 45.1C75.7348 45.5 75.7181 45.8833 75.6848 46.25C75.6848 46.5833 75.6681 46.8333 75.6348 47C75.5348 47.2667 75.2681 47.4833 74.8348 47.65C74.4014 47.8167 74.0514 47.9333 73.7848 48C72.2181 48.4333 70.6181 48.6667 68.9848 48.7C67.3514 48.7667 65.7348 48.6833 64.1348 48.45C63.9014 48.4167 63.6681 48.3833 63.4348 48.35C63.2014 48.35 63.0014 48.2667 62.8348 48.1C62.6014 47.8667 62.4514 47.6 62.3848 47.3C62.3514 46.9667 62.3181 46.65 62.2848 46.35C62.2181 44.75 62.1014 43.1833 61.9348 41.65C61.7681 40.1167 61.5348 38.5667 61.2348 37C60.0014 36.7333 58.7514 36.6333 57.4848 36.7C56.2514 36.7667 55.0348 36.9333 53.8348 37.2C53.5681 38.5667 53.3514 39.9167 53.1848 41.25C53.0181 42.5833 52.9181 43.95 52.8848 45.35C52.8848 45.55 52.8848 45.8167 52.8848 46.15C52.8848 46.45 52.8681 46.7667 52.8348 47.1C52.8014 47.4 52.7348 47.6833 52.6348 47.95C52.5681 48.1833 52.4348 48.35 52.2348 48.45ZM57.2348 24.55C56.8014 25.65 56.4014 26.7667 56.0348 27.9C55.6681 29.0333 55.3514 30.1833 55.0848 31.35C55.8514 31.1833 56.6181 31.0667 57.3848 31C58.1514 30.9333 58.9181 30.8833 59.6848 30.85C59.3514 29.7833 59.0014 28.7167 58.6348 27.65C58.2681 26.55 57.8014 25.5167 57.2348 24.55ZM87.4352 49.35C87.0685 49.45 86.4518 49.5 85.5852 49.5C84.7185 49.5333 83.8018 49.5333 82.8352 49.5C81.9018 49.4667 81.0018 49.4167 80.1352 49.35C79.2685 49.2833 78.6518 49.2333 78.2852 49.2C78.0852 49.2 77.8518 49.1833 77.5852 49.15C77.3185 49.1167 77.0518 49.0667 76.7852 49C76.5185 48.9333 76.2685 48.8333 76.0352 48.7C75.8352 48.6 75.7018 48.4667 75.6352 48.3C75.5018 47.9 75.4018 47.2667 75.3352 46.4C75.3018 45.5 75.2852 44.55 75.2852 43.55C75.2852 42.55 75.3018 41.6 75.3352 40.7C75.3685 39.7667 75.4018 39.1 75.4352 38.7C75.4352 38.4333 75.4518 37.8667 75.4852 37C75.5518 36.1 75.6018 35.15 75.6352 34.15C75.7018 33.15 75.7518 32.2167 75.7852 31.35C75.8518 30.45 75.9018 29.85 75.9352 29.55C75.9685 29.3167 76.0018 28.9167 76.0352 28.35C76.1018 27.7833 76.1685 27.1333 76.2352 26.4C76.3018 25.6667 76.3685 24.9 76.4352 24.1C76.5018 23.2667 76.5685 22.4833 76.6352 21.75C76.7352 21.0167 76.8018 20.3667 76.8352 19.8C76.9018 19.2333 76.9518 18.8333 76.9852 18.6C77.0852 17.7333 77.1852 16.8667 77.2852 16C77.3852 15.1 77.5185 14.2167 77.6852 13.35C77.7518 12.9167 77.8352 12.4833 77.9352 12.05C78.0352 11.5833 78.1852 11.15 78.3852 10.75C78.5518 10.4167 78.8185 10.15 79.1852 9.95C79.4518 9.81666 79.7352 9.73333 80.0352 9.7C80.3352 9.63333 80.6352 9.58333 80.9352 9.55C84.1685 9.25 87.4185 9.13333 90.6852 9.2C93.9852 9.26666 97.2018 9.68333 100.335 10.45C101.635 10.7833 102.852 11.3667 103.985 12.2C105.152 13.0333 106.118 14 106.885 15.1C107.552 16.0667 108.068 17.15 108.435 18.35C108.835 19.5167 109.085 20.6833 109.185 21.85C109.285 23.45 109.168 25.0833 108.835 26.75C108.502 28.3833 107.952 29.9 107.185 31.3C106.918 31.7667 106.635 32.25 106.335 32.75C106.068 33.2167 105.752 33.6667 105.385 34.1C105.118 34.4333 104.802 34.7333 104.435 35C104.102 35.2333 103.752 35.4667 103.385 35.7C104.152 36.4333 104.768 37.2833 105.235 38.25C105.735 39.2167 106.135 40.2167 106.435 41.25C106.668 42.0167 106.868 42.8 107.035 43.6C107.235 44.4 107.368 45.2167 107.435 46.05C107.468 46.35 107.452 46.6667 107.385 47C107.352 47.3333 107.235 47.6167 107.035 47.85C106.635 48.25 106.018 48.55 105.185 48.75C104.385 48.9833 103.518 49.15 102.585 49.25C101.652 49.35 100.718 49.4 99.7852 49.4C98.8852 49.4333 98.1685 49.4333 97.6352 49.4C97.2352 49.3667 96.8018 49.3167 96.3352 49.25C95.9018 49.1833 95.5518 48.9833 95.2852 48.65C95.1852 48.5167 95.0852 48.2333 94.9852 47.8C94.8852 47.3333 94.8018 47.0167 94.7352 46.85C94.6352 46.3833 94.5352 45.9167 94.4352 45.45C94.3352 44.95 94.2518 44.45 94.1852 43.95C94.0518 43.25 93.9018 42.55 93.7352 41.85C93.5685 41.15 93.3018 40.4833 92.9352 39.85C92.6685 39.45 92.3518 39.0833 91.9852 38.75C91.6518 38.4167 91.2518 38.1667 90.7852 38C90.4518 37.9 90.1185 37.8333 89.7852 37.8C89.4852 37.7667 89.1518 37.7333 88.7852 37.7C88.7852 38 88.7852 38.5833 88.7852 39.45C88.8185 40.2833 88.8352 41.2 88.8352 42.2C88.8685 43.1667 88.8852 44.0833 88.8852 44.95C88.9185 45.7833 88.9352 46.3333 88.9352 46.6C88.9018 46.9667 88.8685 47.3333 88.8352 47.7C88.8018 48.0667 88.6852 48.3833 88.4852 48.65C88.3518 48.8167 88.1852 48.95 87.9852 49.05C87.8185 49.1833 87.6352 49.2833 87.4352 49.35ZM91.1852 26.7C91.6518 26.7333 92.1352 26.7167 92.6352 26.65C93.1685 26.55 93.6518 26.4167 94.0852 26.25C94.5518 26.05 94.9518 25.8 95.2852 25.5C95.6185 25.1667 95.8352 24.7833 95.9352 24.35C96.0018 23.8833 96.0185 23.4167 95.9852 22.95C95.9518 22.4833 95.8185 22.05 95.5852 21.65C95.4185 21.3833 95.2018 21.1667 94.9352 21C94.7018 20.8333 94.4518 20.7 94.1852 20.6C93.7518 20.4333 93.3018 20.3333 92.8352 20.3C92.4018 20.2333 91.9685 20.15 91.5352 20.05C91.2352 19.9833 90.8685 19.9167 90.4352 19.85C90.0352 19.7833 89.7518 19.8833 89.5852 20.15C89.4185 20.4167 89.2852 20.8333 89.1852 21.4C89.0852 21.9667 89.0018 22.5667 88.9352 23.2C88.9018 23.8333 88.8685 24.45 88.8352 25.05C88.8018 25.65 88.7852 26.1 88.7852 26.4C89.1852 26.4667 89.5852 26.5333 89.9852 26.6C90.3852 26.6333 90.7852 26.6667 91.1852 26.7ZM127.029 48.15C126.696 48.15 126.046 48.15 125.079 48.15C124.112 48.1833 123.079 48.2 121.979 48.2C120.912 48.2 119.896 48.2 118.929 48.2C117.962 48.2 117.312 48.1833 116.979 48.15C116.612 48.15 116.246 48.1 115.879 48C115.546 47.8667 115.246 47.6667 114.979 47.4C114.712 47.1333 114.529 46.8 114.429 46.4C114.329 46 114.279 45.6 114.279 45.2C114.279 40.7 114.412 36.2167 114.679 31.75C114.946 27.2833 115.196 22.8 115.429 18.3C115.329 18.3333 115.129 18.3667 114.829 18.4C114.529 18.4333 114.196 18.4833 113.829 18.55C113.496 18.5833 113.179 18.6333 112.879 18.7C112.579 18.7333 112.379 18.75 112.279 18.75C112.112 18.7833 111.896 18.8333 111.629 18.9C111.362 18.9667 111.079 19.0333 110.779 19.1C110.479 19.1333 110.196 19.1667 109.929 19.2C109.696 19.2333 109.512 19.2167 109.379 19.15C109.179 19.0833 109.012 18.8833 108.879 18.55C108.812 18.4167 108.746 18.1667 108.679 17.8C108.612 17.4333 108.546 17.05 108.479 16.65C108.412 16.2167 108.362 15.8167 108.329 15.45C108.262 15.0833 108.229 14.8333 108.229 14.7C108.196 14.5333 108.162 14.3167 108.129 14.05C108.096 13.75 108.079 13.45 108.079 13.15C108.079 12.85 108.096 12.5833 108.129 12.35C108.162 12.0833 108.229 11.8833 108.329 11.75C108.429 11.5833 108.612 11.45 108.879 11.35C109.179 11.2167 109.496 11.1167 109.829 11.05C110.162 10.95 110.479 10.8833 110.779 10.85C111.112 10.7833 111.379 10.7333 111.579 10.7C114.646 10.3333 117.712 10.15 120.779 10.15C123.846 10.1167 126.929 10.0667 130.029 10C130.696 9.96666 131.346 9.93333 131.979 9.9C132.612 9.86667 133.262 9.93333 133.929 10.1C134.096 10.1667 134.246 10.2333 134.379 10.3C134.546 10.3333 134.679 10.4167 134.779 10.55C134.879 10.65 134.946 10.8333 134.979 11.1C135.012 11.3667 135.029 11.65 135.029 11.95C135.029 12.25 135.012 12.55 134.979 12.85C134.979 13.1167 134.979 13.3167 134.979 13.45C134.979 13.6167 134.962 13.85 134.929 14.15C134.929 14.4167 134.912 14.7167 134.879 15.05C134.879 15.35 134.846 15.65 134.779 15.95C134.746 16.2167 134.679 16.4167 134.579 16.55C134.412 16.7167 134.096 16.8667 133.629 17C133.162 17.1 132.796 17.1833 132.529 17.25C131.862 17.35 131.196 17.4333 130.529 17.5C129.862 17.5333 129.196 17.6 128.529 17.7C128.496 17.8667 128.496 18.0167 128.529 18.15C128.562 18.2833 128.579 18.4167 128.579 18.55C128.779 22.9833 128.979 27.3833 129.179 31.75C129.412 36.0833 129.646 40.45 129.879 44.85C129.912 45.2833 129.912 45.7333 129.879 46.2C129.879 46.6333 129.746 47.0333 129.479 47.4C129.212 47.7333 128.846 47.9333 128.379 48C127.912 48.1 127.462 48.15 127.029 48.15ZM151.183 48.7C149.383 49.1 147.549 49.2333 145.683 49.1C143.816 48.9667 142.033 48.5667 140.333 47.9C139.233 47.4667 138.183 46.9167 137.183 46.25C136.183 45.5833 135.299 44.7833 134.533 43.85C133.699 42.8167 133.049 41.6667 132.583 40.4C132.116 39.1333 131.799 37.85 131.633 36.55C131.266 34.25 131.233 31.9167 131.533 29.55C131.833 27.1833 132.416 24.9 133.283 22.7C133.849 21.2 134.533 19.75 135.333 18.35C136.166 16.95 137.149 15.6667 138.283 14.5C139.949 12.8 141.883 11.5333 144.083 10.7C145.383 10.2 146.749 9.88333 148.183 9.75C149.616 9.61666 151.033 9.63333 152.433 9.8C153.199 9.9 153.949 10.0333 154.683 10.2C155.416 10.3333 156.116 10.55 156.783 10.85C157.449 11.1833 158.116 11.5333 158.783 11.9C159.483 12.2333 160.133 12.6333 160.733 13.1C161.533 13.7 162.283 14.3833 162.983 15.15C163.683 15.9167 164.266 16.7333 164.733 17.6C165.499 19 165.966 20.5333 166.133 22.2C166.333 23.8667 166.366 25.5167 166.233 27.15C166.033 29.8833 165.449 32.6167 164.483 35.35C163.549 38.05 162.183 40.4667 160.383 42.6C159.916 43.1667 159.416 43.7333 158.883 44.3C158.349 44.8667 157.783 45.3833 157.183 45.85C156.316 46.5167 155.366 47.1 154.333 47.6C153.299 48.1 152.249 48.4667 151.183 48.7ZM145.733 36.7C146.066 36.9333 146.399 37.05 146.733 37.05C147.099 37.05 147.449 36.9833 147.783 36.85C148.116 36.6833 148.416 36.4667 148.683 36.2C149.183 35.7333 149.599 35.2167 149.933 34.65C150.299 34.05 150.633 33.4333 150.933 32.8C151.399 31.9333 151.799 31.05 152.133 30.15C152.466 29.25 152.733 28.3167 152.933 27.35C153.066 26.85 153.149 26.35 153.183 25.85C153.249 25.3167 153.216 24.8167 153.083 24.35C153.016 24.0833 152.899 23.8333 152.733 23.6C152.599 23.3667 152.416 23.1667 152.183 23C151.749 22.7 151.149 22.5333 150.383 22.5C149.616 22.4667 149.016 22.6 148.583 22.9C148.216 23.1667 147.849 23.6333 147.483 24.3C147.116 24.9333 146.783 25.6333 146.483 26.4C146.183 27.1667 145.916 27.9333 145.683 28.7C145.483 29.4333 145.333 30.0167 145.233 30.45C145.133 30.8833 145.033 31.4167 144.933 32.05C144.866 32.65 144.816 33.25 144.783 33.85C144.783 34.45 144.849 35.0167 144.983 35.55C145.116 36.05 145.366 36.4333 145.733 36.7Z" fill="white"/>
</g>
<defs>
<filter id="filter0_d_1392_2" x="0.835938" y="6.43994" width="174.439" height="48.2651" filterUnits="userSpaceOnUse" color-interpolation-filters="sRGB">
<feFlood flood-opacity="0" result="BackgroundImageFix"/>
<feColorMatrix in="SourceAlpha" type="matrix" values="0 0 0 0 0 0 0 0 0 0 0 0 0 0 0 0 0 0 127 0" result="hardAlpha"/>
<feOffset dy="3"/>
<feComposite in2="hardAlpha" operator="out"/>
<feColorMatrix type="matrix" values="0 0 0 0 0 0 0 0 0 0 0 0 0 0 0 0 0 0 0.98 0"/>
<feBlend mode="normal" in2="BackgroundImageFix" result="effect1_dropShadow_1392_2"/>
<feBlend mode="normal" in="SourceGraphic" in2="effect1_dropShadow_1392_2" result="shape"/>
</filter>
<filter id="filter1_d_1392_2" x="3.84961" y="8.3999" width="166.584" height="50.1499" filterUnits="userSpaceOnUse" color-interpolation-filters="sRGB">
<feFlood flood-opacity="0" result="BackgroundImageFix"/>
<feColorMatrix in="SourceAlpha" type="matrix" values="0 0 0 0 0 0 0 0 0 0 0 0 0 0 0 0 0 0 127 0" result="hardAlpha"/>
<feOffset dy="5"/>
<feGaussianBlur stdDeviation="2"/>
<feComposite in2="hardAlpha" operator="out"/>
<feColorMatrix type="matrix" values="0 0 0 0 0 0 0 0 0 0 0 0 0 0 0 0 0 0 0.59 0"/>
<feBlend mode="normal" in2="BackgroundImageFix" result="effect1_dropShadow_1392_2"/>
<feBlend mode="normal" in="SourceGraphic" in2="effect1_dropShadow_1392_2" result="shape"/>
</filter>
</defs>
</svg>
